<svg xmlns="http://www.w3.org/2000/svg" viewBox="0 0 25 23.42"><g id="Layer_2" data-name="Layer 2"><g id="Layer_1-2" data-name="Layer 1"><path d="M3.93,17.91,2.56,19c-.16-.2-.31-.41-.46-.62l1.48-1C3.69,17.6,3.81,17.76,3.93,17.91ZM2.6,15.69,1,16.36c.1.24.21.47.33.7l1.56-.84A5.12,5.12,0,0,1,2.6,15.69ZM4.88,19,3.64,20.21c.18.18.38.35.57.52l1.11-1.38ZM2,13.78l-1.74.33q.07.39.18.75l1.69-.5C2.07,14.17,2,14,2,13.78ZM8.14,2.44,7.53.77l-.7.3.77,1.6ZM9.81.16q-.37.06-.75.15L9.49,2l.58-.11ZM6.17,22.05,7,20.47l-.51-.29-1,1.48C5.72,21.8,5.94,21.93,6.17,22.05Zm2.18.9.48-1.71-.56-.19L7.62,22.7ZM4.78,4.59,3.57,3.29c-.18.18-.36.37-.53.56L4.37,5ZM6.35,3.35,5.43,1.84c-.22.13-.43.28-.64.43L5.87,3.68A5.11,5.11,0,0,1,6.35,3.35ZM2.05,5.1c-.14.21-.28.42-.41.64l1.54.88c.1-.17.21-.34.32-.5ZM0,11.77c0,.25,0,.51,0,.77l1.76-.16c0-.19,0-.39,0-.59Zm.92-4.6c-.1.23-.19.47-.27.71l1.68.55.21-.55ZM.23,9.42c-.05.25-.09.5-.13.76l1.76.2c0-.19.06-.39.1-.58ZM11.71,0H11.4l.08,1.77h.59L12.17,0Zm.37,21.65,0,1.77c.25,0,.51,0,.77-.05l-.2-1.76Zm10.71-5.49-.11-.1.05-.13a11.65,11.65,0,0,0,.77-3.81,11.45,11.45,0,0,0-.56-4,11.72,11.72,0,0,0-6-6.93l0,0h0L16.48,1,16.21.9,16,.82h0L15.4,2.48l.17.07h0l.14.06.21.09h0l.19.09c.3.14.59.31.88.48l.17.11h0l.65.44h0a8,8,0,0,1,.77.65h0l.68.71h0a9.36,9.36,0,0,1,.62.79h0l.53.83h0c.16.29.31.6.45.91h0l.35.92h0c.1.32.19.65.26,1h0l.16,1h0c0,.33.05.67.06,1h0l0,1h0a8.62,8.62,0,0,1-.15,1v0h0s-.18.53-.26.79l-.09.3-.24-.2-2.06-1.74L17.67,19.7l-.19,1.05,3-1.08L25,18ZM14.05,2.05,14.5.34c-.25-.06-.5-.12-.75-.16l-.28,1.75A5.41,5.41,0,0,1,14.05,2.05ZM10.67,21.59l-.59-.08-.33,1.73.16,0v0l.76.1.13-1.77h-.13Zm2.46-9.9A1.35,1.35,0,0,1,11,12.76l-3.53,2a8.4,8.4,0,0,1-.51-.93l3.52-1.95a1.36,1.36,0,0,1,.82-1.4V5.09a6.14,6.14,0,0,1,1.05,0v5.35A1.35,1.35,0,0,1,13.13,11.69Z"/></g></g></svg>