<svg xmlns="http://www.w3.org/2000/svg" viewBox="0 0 29.78 25">
	<defs>
		<style>
			.cls-1{fill:#231f20;}
		</style>
	</defs>
	<g id="Layer_2" data-name="Layer 2">
		<g id="Layer_1-2" data-name="Layer 1">
			<path class="cls-1" d="M9.66,17.86a4.77,4.77,0,1,1,4.78-4.77A4.78,4.78,0,0,1,9.66,17.86Zm0-8.34a3.57,3.57,0,1,0,3.57,3.57A3.57,3.57,0,0,0,9.66,9.52Z" />
			<path class="cls-1" d="M17.41,25H1.92v-.6a7.75,7.75,0,0,1,15.49,0ZM3.15,23.8h13a6.54,6.54,0,0,0-13,0Z" />
			<path class="cls-1" d="M24.27,4.94H5.35a.61.61,0,0,0-.58.52.65.65,0,0,0,.41.73,1.9,1.9,0,0,0,.46,0H24.15a1.67,1.67,0,0,0,.32,0A.62.62,0,0,0,25,5.56C25,5.18,24.73,5,24.27,4.94Z" />
			<path class="cls-1" d="M25,10.94a.66.66,0,0,0-.72-.61H16.68a.7.7,0,0,0-.74.42.62.62,0,0,0,.06.59.67.67,0,0,0,.59.29h7.73a.76.76,0,0,0,.54-.2A.66.66,0,0,0,25,10.94Z" />
			<path class="cls-1" d="M15,20.12H19v3.79a1.39,1.39,0,0,0,.11.7.68.68,0,0,0,.78.14,3.26,3.26,0,0,0,1.06-.84l2.64-2.78a3.17,3.17,0,0,1,1.15-.88A3.3,3.3,0,0,1,26,20.11h.22a3.43,3.43,0,0,0,3.24-1.61,5.35,5.35,0,0,0,.32-2.26V4.09a4.72,4.72,0,0,0-.62-2.94C28.35.11,26.73,0,25.27,0L4.86,0H4.63A14.69,14.69,0,0,0,3.16.06a5.85,5.85,0,0,0-1,.19A2.84,2.84,0,0,0,.29,1.67,4.81,4.81,0,0,0,0,3.61L0,15.88a5.61,5.61,0,0,0,.47,2.8,3.31,3.31,0,0,0,3,1.43h1l.62-.58s.58-.54.78-.72H4.08c-.24,0-.48,0-.72,0H3.12A1.73,1.73,0,0,1,1.32,17V3A1.76,1.76,0,0,1,3,1.32H26.5a1.78,1.78,0,0,1,2,2V16.85a1.78,1.78,0,0,1-2,1.95H24.62a1.09,1.09,0,0,0-.89.38c-.53.56-1.09,1.11-1.63,1.65l-1.81,1.7V19.67c0-.64-.22-.86-.85-.87h-5.6Z" />
		</g>
	</g>
</svg>
