<svg xmlns="http://www.w3.org/2000/svg" viewBox="0 0 30.57 25">
	<defs>
		<style>
			.cls-1{fill:#231f20;}
		</style>
	</defs>
	<g id="Layer_2" data-name="Layer 2">
		<g id="Layer_1-2" data-name="Layer 1">
			<path class="cls-1" d="M3.28,20.82c-.83,0-1.59,0-2.34,0S0,20.61,0,19.92Q0,10.38,0,.85C0,.25.2,0,.83,0H26.47c.61,0,.87.2.84.83s0,1.52,0,2.4h2.23c.95,0,1,.09,1,1V24.05c0,.88-.07.95-.93.95H4.22c-.87,0-.94-.07-.94-.93S3.28,21.64,3.28,20.82Zm22.94-6.76V1.11h-25V11.45C2.57,10.13,4,8.76,5.46,7.37c.45-.44.77-.43,1.16.07,1,1.32,2.06,2.6,3.1,3.9l2.81,3.52c2-1.3,4-2.55,5.89-3.86a1.53,1.53,0,0,1,1.87-.09C22.22,12,24.18,13,26.22,14.06ZM15,19.71,6.13,8.54l-4.8,4.58a.68.68,0,0,0-.21.43c0,2,0,4.08,0,6.16ZM27.3,4.34V19.66c0,1.14,0,1.16-1.15,1.16H4.37v3.09H29.43V4.34Zm-1,15.4c0-1.44,0-2.79,0-4.14a.77.77,0,0,0-.39-.51c-2-1.08-4-2.15-6-3.19a.82.82,0,0,0-.7,0c-2,1.24-3.9,2.52-5.91,3.84,1.05,1.32,2.06,2.6,3.09,3.86a.62.62,0,0,0,.44.17C19.87,19.75,23,19.74,26.26,19.74Z" />
			<path class="cls-1" d="M17,7.16A3.14,3.14,0,1,1,13.83,4,3.14,3.14,0,0,1,17,7.16ZM13.9,9.22A2.1,2.1,0,0,0,16,7.1a2.12,2.12,0,0,0-2.08-2,2.08,2.08,0,1,0,0,4.15Z" />
		</g>
	</g>
</svg>
