<svg xmlns="http://www.w3.org/2000/svg" viewBox="0 0 22.91 25.5">
	<defs>
		<style>
			.cls-1{fill:#231f20;}
		</style>
	</defs>
	<g id="Layer_2" data-name="Layer 2">
		<g id="Layer_1-2" data-name="Layer 1">
			<path class="cls-1" d="M22.91,9.37a2.21,2.21,0,0,0-1.67-1.86A1.22,1.22,0,0,0,21,7.45V7.09c0-.42,0-.85,0-1.27a2.07,2.07,0,0,0-.65-1.6C19.2,3.11,18.08,2,17,.86A2.71,2.71,0,0,0,15.67,0H4L4,0H4L3.88,0A2.25,2.25,0,0,0,2,2.45v5c-1.26.27-2,1-2,2.07v14a2.28,2.28,0,0,0,2.37,2H21a2.12,2.12,0,0,0,.62-.1,1.88,1.88,0,0,0,1.33-1.92V9.37Zm-20.28.74A.59.59,0,0,0,3.05,10a.85.85,0,0,0,.21-.64V2.4A1,1,0,0,1,4.43,1.23H15.22V3.36a2.24,2.24,0,0,0,2.38,2.39h2.14v6.08a.59.59,0,0,0,.57.55.58.58,0,0,0,.64-.49,1.32,1.32,0,0,0,0-.3V8.72c.35.1.68.33.69.58,0,1,0,1.92,0,2.89V13a2.87,2.87,0,0,0-1-.13h-11c-.54,0-.7-.1-.92-.62a5.38,5.38,0,0,0-.52-1,1.61,1.61,0,0,0-1.38-.69h-.6c-1.44,0-3.12,0-4.49,0a2.52,2.52,0,0,0-.61.11v-.19c0-.4,0-.8,0-1.2,0-.25.39-.5.79-.6V9.3C2,10,2.41,10.1,2.63,10.11Zm-1.4,2.53c0-.58.24-.82.81-.82H6.72a.79.79,0,0,1,.81.52l0,.12c.07.16.14.33.22.49a1.9,1.9,0,0,0,1.86,1.16H21a.65.65,0,0,1,.69.68c0,.16,0,.33,0,.49v8.15c0,.6-.23.84-.83.84H2.47c-.6,0-1.24-.29-1.24-.82ZM17.39,4.5a.92.92,0,0,1-.91-.88c0-.42,0-.86,0-1.28V2.2l2.3,2.31C18.31,4.52,17.85,4.52,17.39,4.5Z" />
			<path class="cls-1" d="M5,5.76H8.45a.64.64,0,0,0,.7-.62.62.62,0,0,0-.7-.61H5a.6.6,0,0,0-.69.59.63.63,0,0,0,.16.44A.75.75,0,0,0,5,5.76Z" />
			<path class="cls-1" d="M5,3.55H8.45a.62.62,0,1,0,0-1.23H5a.73.73,0,0,0-.55.2A.6.6,0,0,0,4.3,3C4.31,3.09,4.37,3.54,5,3.55Z" />
		</g>
	</g>
</svg>
