<svg width="25" height="25" xmlns="http://www.w3.org/2000/svg" data-name="Layer 1">
 <g>
  <title>Layer 1</title>
  <g stroke="null" id="svg_7">
   <path stroke="null" class="cls-1" d="m24.85838,18.31646l0,-2.09178l-1.2093,-0.22412a4.62186,4.6318 0 0 0 -0.47213,-1.1455l0.69577,-1.01268l-1.47436,-1.47753l-1.01052,0.69726a2.11214,2.11668 0 0 0 -0.27334,-0.14111l1.09334,-4.15036l-0.97738,0l0,-4.43258l-9.11119,0l-2.17012,-1.91747l-7.41319,0l0,1.88427l-1.88022,0l0,15.21522l14.01466,0c0,0.0581 0.05797,0.11621 0.09111,0.16601l-0.69577,1.02099l1.48263,1.47753l1.01052,-0.69726a4.56387,4.57369 0 0 0 1.16788,0.43994l0.22364,1.2119l2.08729,0l0.17394,-1.2119a4.62186,4.6318 0 0 0 1.14305,-0.47314l1.0188,0.69726l1.47436,-1.47753l-0.69577,-1.01268a4.83721,4.84762 0 0 0 0.48041,-1.15379l1.22587,-0.19092l0.00001,-0.00003zm-1.84708,-0.35693a4.24084,4.24997 0 0 1 -0.69577,1.66015l-0.0497,0.0581l0.6295,0.91308l-0.58809,0.58935l-0.90284,-0.62255l-0.05797,0.0415a4.31539,4.32467 0 0 1 -1.65658,0.69726l-0.06626,0l-0.24021,1.12059l-0.82828,0l-0.19879,-1.0791l-0.06626,0a4.23256,4.24166 0 0 1 -1.65658,-0.69726l-0.05797,-0.0415l-0.90284,0.62255l-0.59637,-0.58935l0.62121,-0.90477l0,-0.0581a4.29054,4.29977 0 0 1 -0.70405,-1.66015l0,-0.0664l-1.07677,-0.20751l0,-0.83007l1.07677,-0.19922l0,-0.0664a4.31539,4.32467 0 0 1 0.70405,-1.66015l0.04142,-0.0581l-0.6295,-0.90477l0.59637,-0.58935l0.90284,0.62255l0.05797,-0.0415a4.19943,4.20846 0 0 1 1.65658,-0.70556l0.06626,0l0.16565,-1.1704l0.82828,0l0.1905,1.0791l0.07454,0a4.22427,4.23337 0 0 1 1.65658,0.70556l0.05797,0.0415l0.91112,-0.62255l0.58809,0.58935l-0.62121,0.90477l0,0.0581a4.18287,4.19186 0 0 1 0.70405,1.66015l0,0.07471l1.07677,0.19922l0,0.83007l-1.07677,0.19922l0.06626,0.10791l0.00001,-0.00003zm-2.60083,-5.32906l-0.19879,-0.04981l-0.22364,-1.2119l-2.06244,0l-0.19879,1.2119a4.46448,4.47409 0 0 0 -1.14305,0.48144l-1.01052,-0.69726l-1.48263,1.47753l0.69577,1.01268a5.11883,5.12984 0 0 0 -0.47213,1.1455l-1.2093,0.22412l0,2.09178l1.2093,0.22412c0,0.07471 0,0.14111 0.06626,0.22412l-12.85506,0l2.43517,-9.2138l17.26985,0l-0.82001,3.07957l0,0.00001zm0.05797,-3.83494l-1.08506,0l0,-2.57322l-9.11119,0l-2.20325,-1.91747l-4.77923,0l0,-1.1289l6.36955,0l2.12871,1.91747l8.68048,0l0,3.70212l-0.00001,0zm-1.87194,-1.80956l0,1.81785l-15.21568,0l-1.97133,7.47065l0,-11.21427l6.37783,0l2.12871,1.92577l8.68048,0l-0.00001,0z" fill="#231f20" id="svg_1" stroke-width="0"/>
   <path stroke="null" class="cls-1" d="m19.20028,14.19221a3.51175,3.14716 0 1 0 3.51175,3.14716a3.52109,3.15554 0 0 0 -3.51175,-3.14716zm2.66184,3.14716a2.66184,2.38548 0 1 1 -2.66184,-2.38548a2.67117,2.39386 0 0 1 2.66184,2.38548z" fill="#231f20" id="svg_2"/>
   <rect stroke="null" class="cls-1" x="7.46782" y="13.32909" width="1.18527" height="1.18713" fill="#231f20" id="svg_3"/>
   <rect stroke="null" class="cls-1" x="5.1624" y="13.32909" width="1.18527" height="1.18713" fill="#231f20" id="svg_4"/>
   <rect stroke="null" class="cls-1" x="12.07866" y="13.32909" width="1.18527" height="1.18713" fill="#231f20" id="svg_5"/>
   <rect stroke="null" class="cls-1" x="9.77324" y="13.32909" width="1.18527" height="1.18713" fill="#231f20" id="svg_6"/>
  </g>
 </g>

</svg>