<svg id="Layer_1" data-name="Layer 1" xmlns="http://www.w3.org/2000/svg" viewBox="0 0 30 30">
    <defs>
        <style>.cls-1{fill:#231f20;}</style>
    </defs>
    <path class="cls-1" d="M14.24,18.47l0,0v0l0-.09v-.09s0,0,0,0,0,0,0-.05l0,0,0,0-3.49-3.52a.45.45,0,0,0-.65,0,.46.46,0,0,0,0,.65l2.62,2.62H5.58a.47.47,0,0,0,0,.93h7.13l-2.62,2.62a.47.47,0,0,0,0,.66.42.42,0,0,0,.32.13.44.44,0,0,0,.33-.13l3.43-3.43.05-.07Zm-.08-.28Zm-.05-.12Z" />
    <path class="cls-1" d="M16.62,22.34h7.24a.46.46,0,0,0,.46-.46V14.63a.46.46,0,0,0-.46-.46H16.62a.46.46,0,0,0-.46.46v7.25A.46.46,0,0,0,16.62,22.34Zm.46-.92V15.1H23.4v6.32Z" />
    <path class="cls-1" d="M25.14,4.56h-.26V3.93a1.43,1.43,0,1,0-2.86,0v.63H20.65V3.93a1.43,1.43,0,1,0-2.85,0v.63H16.43V3.93a1.43,1.43,0,1,0-2.86,0v.63H12.2V3.93a1.43,1.43,0,1,0-2.85,0v.63H8V3.93a1.43,1.43,0,0,0-2.86,0v.63H4.86A2.39,2.39,0,0,0,2.47,7V25.11A2.39,2.39,0,0,0,4.86,27.5H25.14a2.39,2.39,0,0,0,2.39-2.39V7A2.39,2.39,0,0,0,25.14,4.56Zm1.47,5.55v15a1.47,1.47,0,0,1-1.47,1.47H4.86a1.47,1.47,0,0,1-1.47-1.47v-15ZM6.55,7.48A1.43,1.43,0,0,0,8,6.05V5.48H9.35v.57a1.43,1.43,0,1,0,2.85,0V5.48h1.37v.57a1.43,1.43,0,0,0,2.86,0V5.48H17.8v.57a1.43,1.43,0,1,0,2.85,0V5.48H22v.57a1.43,1.43,0,1,0,2.86,0V5.48h.26A1.47,1.47,0,0,1,26.61,7V9.19H3.39V7A1.47,1.47,0,0,1,4.86,5.48h.26v.57A1.43,1.43,0,0,0,6.55,7.48ZM24,6.05a.5.5,0,1,1-1,0V3.93a.5.5,0,1,1,1,0Zm-4.22,0a.51.51,0,1,1-1,0V3.93a.51.51,0,1,1,1,0Zm-4.23,0a.5.5,0,1,1-1,0V3.93a.5.5,0,1,1,1,0Zm-4.22,0a.51.51,0,1,1-1,0V3.93a.51.51,0,1,1,1,0Zm-4.23,0a.5.5,0,1,1-1,0V3.93a.5.5,0,1,1,1,0Z" />
</svg>