<svg id="Layer_1" data-name="Layer 1" xmlns="http://www.w3.org/2000/svg" viewBox="0 0 30 30"><defs><style>.cls-1{fill:#231f20;}</style></defs><path class="cls-1" d="M20.31,11.71H9.66a.41.41,0,0,0-.41.42.41.41,0,0,0,.41.41H20.31a.41.41,0,0,0,.41-.41A.41.41,0,0,0,20.31,11.71Z"/><path class="cls-1" d="M20.31,14.47H9.66a.42.42,0,0,0,0,.83H20.31a.42.42,0,0,0,0-.83Z"/><path class="cls-1" d="M20.31,17.23H9.66a.41.41,0,1,0,0,.82H20.31a.41.41,0,1,0,0-.82Z"/><path class="cls-1" d="M20.31,20H9.66a.41.41,0,0,0-.41.42.41.41,0,0,0,.41.41H20.31a.41.41,0,0,0,.41-.41A.41.41,0,0,0,20.31,20Z"/><path class="cls-1" d="M20.9,2.5H8.52A2.77,2.77,0,0,0,5.75,5.27V24.73A2.77,2.77,0,0,0,8.52,27.5h13a2.77,2.77,0,0,0,2.77-2.77V5.85Zm.58,24.17h-13a1.94,1.94,0,0,1-1.94-1.94V5.27A1.94,1.94,0,0,1,8.52,3.33H20.14V6.61h3.28V24.73A1.94,1.94,0,0,1,21.48,26.67Z"/></svg>