<svg id="Layer_1" data-name="Layer 1" xmlns="http://www.w3.org/2000/svg" viewBox="0 0 30 30"><defs><style>.cls-1{fill:#231f20;}</style></defs><path class="cls-1" d="M21.45,10.38a9.79,9.79,0,0,0-7.53-7.69l-.8-.13-.37-.06H11.38l-.33,0c-.24,0-.49.06-.73.11a9.49,9.49,0,0,0-7,5.58,8.21,8.21,0,0,0-.7,4.93,17.89,17.89,0,0,0,.6,2.37,5.83,5.83,0,0,1-.55,5,.53.53,0,0,0-.06.42.58.58,0,0,0,.31.35A4.72,4.72,0,0,0,8,21a.57.57,0,0,1,.56-.08,9.14,9.14,0,0,0,6.06.27A9.59,9.59,0,0,0,21.45,10.38ZM8.52,19.75a.66.66,0,0,0-.82.13,3.62,3.62,0,0,1-2.44.95c-.28,0-1.16.05-1.24-.33a.31.31,0,0,1,0-.19,9,9,0,0,0,.25-.89c.08-.31.16-.63.22-1a6.32,6.32,0,0,0-.22-2.91c0-.19-.1-.37-.16-.56a16.36,16.36,0,0,1-.49-2,7.53,7.53,0,0,1,1-5.1A8.28,8.28,0,0,1,11.22,3.6a8.53,8.53,0,0,1,9.19,7,8.36,8.36,0,0,1-1.4,6.3,8.72,8.72,0,0,1-5.64,3.55A8.16,8.16,0,0,1,8.52,19.75Z"/><path class="cls-1" d="M22,26.6a4.69,4.69,0,0,0,5.06.3c.21-.11.32-.25.31-.41a1.18,1.18,0,0,0-.15-.52,5.6,5.6,0,0,1-.38-4.92,8.43,8.43,0,0,0,.39-1.29c.08-.35.13-.71.18-1.05,0-.15.05-.3.07-.45V17a1.38,1.38,0,0,1,0-.2,9.55,9.55,0,0,0-2.11-5.2.53.53,0,0,0-.79-.14.55.55,0,0,0,0,.81,8.51,8.51,0,0,1,1.27,8.64,6.25,6.25,0,0,0-.26,3.65,10.09,10.09,0,0,0,.3,1L26,26l.06.21-.21.07-.22.07a3.61,3.61,0,0,1-3.26-.81.78.78,0,0,0-1-.14,7.65,7.65,0,0,1-3.14.72,8.42,8.42,0,0,1-5.82-2,.54.54,0,0,0-.79,0,.5.5,0,0,0-.12.38.57.57,0,0,0,.24.41,9.58,9.58,0,0,0,9.65,1.61.67.67,0,0,1,.24,0A.65.65,0,0,1,22,26.6Z"/><path class="cls-1" d="M7.65,11.11h0a1,1,0,1,0,0,1.93,1,1,0,0,0,.69-.29,1,1,0,0,0-.69-1.64Z"/><path class="cls-1" d="M11.09,12.07a1,1,0,0,0,.28.69,1,1,0,0,0,.68.28h0a1,1,0,0,0,.69-.29,1,1,0,0,0,.28-.68.92.92,0,0,0-.29-.68,1,1,0,0,0-.67-.28h0A1,1,0,0,0,11.09,12.07Z"/><path class="cls-1" d="M15.77,12.75a1,1,0,0,0,.69.29h0a1,1,0,0,0,.68-.28,1,1,0,0,0,.28-.69,1,1,0,0,0-1-1,.88.88,0,0,0-.68.28.93.93,0,0,0-.3.68A1,1,0,0,0,15.77,12.75Z"/></svg>