<svg id="Layer_1" data-name="Layer 1" xmlns="http://www.w3.org/2000/svg" viewBox="0 0 30 30"><defs><style>.cls-1{fill:#010101;}</style></defs><path class="cls-1" d="M22.27,4.84H19.11V4.53A.49.49,0,0,0,18.62,4H17.2a.8.8,0,0,1-.75-.52,1.54,1.54,0,0,0-2.9,0A.8.8,0,0,1,12.8,4H11.38a.49.49,0,0,0-.49.49v.31H7.73A1.86,1.86,0,0,0,5.87,6.7V25.64A1.86,1.86,0,0,0,7.73,27.5H22.27a1.86,1.86,0,0,0,1.86-1.86V6.7A1.86,1.86,0,0,0,22.27,4.84ZM15,3.29a.55.55,0,1,1-.55.54A.55.55,0,0,1,15,3.29Zm8.28,22.35a1,1,0,0,1-1,1H7.73a1,1,0,0,1-1-1V6.7a1,1,0,0,1,1-1h3.16v.21a.49.49,0,0,0,.49.49h7.24a.49.49,0,0,0,.49-.49V5.7h3.16a1,1,0,0,1,1,1Z"/><path class="cls-1" d="M10.37,11.34a.42.42,0,0,1-.29-.12L9,10.1a.41.41,0,0,1,0-.58.4.4,0,0,1,.57,0l.83.83,2-2a.4.4,0,0,1,.57.57l-2.29,2.3A.4.4,0,0,1,10.37,11.34Z"/><path class="cls-1" d="M10.37,15.59a.41.41,0,0,1-.29-.11L9,14.36a.41.41,0,0,1,0-.58.4.4,0,0,1,.57,0l.83.83,2-2a.4.4,0,0,1,.57.57l-2.29,2.3A.39.39,0,0,1,10.37,15.59Z"/><path class="cls-1" d="M10.37,19.85a.46.46,0,0,1-.29-.11L9,18.62A.41.41,0,0,1,9,18a.4.4,0,0,1,.57,0l.83.83,2-2a.4.4,0,0,1,.57.57l-2.29,2.3A.44.44,0,0,1,10.37,19.85Z"/><path class="cls-1" d="M10.37,24.11a.46.46,0,0,1-.29-.11L9,22.88a.41.41,0,0,1,0-.58.4.4,0,0,1,.57,0l.83.83,2-2a.4.4,0,0,1,.57.57L10.66,24A.44.44,0,0,1,10.37,24.11Z"/><path class="cls-1" d="M20.75,10.19H14.89a.41.41,0,1,1,0-.81h5.86a.41.41,0,0,1,0,.81Z"/><path class="cls-1" d="M20.75,14.45H14.89a.41.41,0,1,1,0-.81h5.86a.41.41,0,0,1,0,.81Z"/><path class="cls-1" d="M20.75,18.71H14.89a.41.41,0,1,1,0-.81h5.86a.41.41,0,0,1,0,.81Z"/><path class="cls-1" d="M20.75,23H14.89a.41.41,0,0,1-.41-.41.41.41,0,0,1,.41-.41h5.86a.41.41,0,0,1,.4.41A.4.4,0,0,1,20.75,23Z"/></svg>